<mxfile host="app.diagrams.net" modified="2024-11-06T21:47:52.463Z" agent="Mozilla/5.0 (Macintosh; Intel Mac OS X 10_15_7) AppleWebKit/537.36 (KHTML, like Gecko) Chrome/130.0.0.0 Safari/537.36" etag="g-djfKpvbaQn_XOcKT8p" version="24.6.4" type="device">
  <diagram id="Ni5CSNCsvj5XN5-vopVJ" name="Page-1">
    <mxGraphModel dx="3234" dy="2018" grid="1" gridSize="10" guides="1" tooltips="1" connect="1" arrows="1" fold="1" page="1" pageScale="1" pageWidth="1100" pageHeight="850" math="0" shadow="0">
      <root>
        <mxCell id="0" />
        <mxCell id="1" parent="0" />
        <mxCell id="n9Uv7dvkTE0P81GzbXzv-20" value="" style="rounded=0;whiteSpace=wrap;html=1;fillColor=#00170C;gradientColor=#002B17;" parent="1" vertex="1">
          <mxGeometry x="-40" y="-70" width="1640" height="950" as="geometry" />
        </mxCell>
        <mxCell id="n9Uv7dvkTE0P81GzbXzv-1" value="" style="ellipse;whiteSpace=wrap;html=1;aspect=fixed;fillColor=none;strokeColor=#D6D6D6;strokeWidth=4;opacity=60;" parent="1" vertex="1">
          <mxGeometry x="-30" y="-60" width="80" height="80" as="geometry" />
        </mxCell>
        <mxCell id="n9Uv7dvkTE0P81GzbXzv-2" value="" style="ellipse;whiteSpace=wrap;html=1;aspect=fixed;fillColor=none;strokeColor=#D6D6D6;strokeWidth=4;opacity=60;" parent="1" vertex="1">
          <mxGeometry x="-40" y="270" width="80" height="80" as="geometry" />
        </mxCell>
        <mxCell id="n9Uv7dvkTE0P81GzbXzv-4" value="" style="ellipse;whiteSpace=wrap;html=1;aspect=fixed;fillColor=none;strokeColor=#D6D6D6;strokeWidth=4;opacity=60;" parent="1" vertex="1">
          <mxGeometry x="270" y="-40" width="80" height="80" as="geometry" />
        </mxCell>
        <mxCell id="n9Uv7dvkTE0P81GzbXzv-5" value="" style="ellipse;whiteSpace=wrap;html=1;aspect=fixed;fillColor=none;strokeColor=#D6D6D6;strokeWidth=4;opacity=60;" parent="1" vertex="1">
          <mxGeometry x="580" y="-30" width="80" height="80" as="geometry" />
        </mxCell>
        <mxCell id="n9Uv7dvkTE0P81GzbXzv-6" value="" style="ellipse;whiteSpace=wrap;html=1;aspect=fixed;fillColor=none;strokeColor=#D6D6D6;strokeWidth=4;opacity=60;" parent="1" vertex="1">
          <mxGeometry x="190" y="90" width="80" height="80" as="geometry" />
        </mxCell>
        <mxCell id="n9Uv7dvkTE0P81GzbXzv-7" value="" style="ellipse;whiteSpace=wrap;html=1;aspect=fixed;fillColor=none;strokeColor=#D6D6D6;strokeWidth=4;opacity=60;" parent="1" vertex="1">
          <mxGeometry x="-10" y="780" width="80" height="80" as="geometry" />
        </mxCell>
        <mxCell id="n9Uv7dvkTE0P81GzbXzv-8" value="" style="ellipse;whiteSpace=wrap;html=1;aspect=fixed;fillColor=none;strokeColor=#D6D6D6;strokeWidth=4;gradientColor=none;opacity=60;" parent="1" vertex="1">
          <mxGeometry x="1280" y="520" width="80" height="80" as="geometry" />
        </mxCell>
        <mxCell id="n9Uv7dvkTE0P81GzbXzv-9" value="" style="ellipse;whiteSpace=wrap;html=1;aspect=fixed;fillColor=none;strokeColor=#D6D6D6;strokeWidth=4;opacity=60;" parent="1" vertex="1">
          <mxGeometry x="1130" y="630" width="80" height="80" as="geometry" />
        </mxCell>
        <mxCell id="n9Uv7dvkTE0P81GzbXzv-10" value="" style="endArrow=classic;html=1;rounded=0;exitX=1;exitY=0.5;exitDx=0;exitDy=0;entryX=0;entryY=0.5;entryDx=0;entryDy=0;strokeColor=#D6D6D6;strokeWidth=3;opacity=60;" parent="1" source="n9Uv7dvkTE0P81GzbXzv-1" target="n9Uv7dvkTE0P81GzbXzv-4" edge="1">
          <mxGeometry width="50" height="50" relative="1" as="geometry">
            <mxPoint x="550" y="380" as="sourcePoint" />
            <mxPoint x="600" y="330" as="targetPoint" />
          </mxGeometry>
        </mxCell>
        <mxCell id="n9Uv7dvkTE0P81GzbXzv-11" value="" style="endArrow=classic;html=1;rounded=0;strokeColor=#D6D6D6;strokeWidth=3;exitX=0.5;exitY=1;exitDx=0;exitDy=0;opacity=60;" parent="1" source="n9Uv7dvkTE0P81GzbXzv-1" target="n9Uv7dvkTE0P81GzbXzv-2" edge="1">
          <mxGeometry width="50" height="50" relative="1" as="geometry">
            <mxPoint x="550" y="380" as="sourcePoint" />
            <mxPoint x="600" y="330" as="targetPoint" />
          </mxGeometry>
        </mxCell>
        <mxCell id="n9Uv7dvkTE0P81GzbXzv-12" value="" style="endArrow=classic;html=1;rounded=0;strokeColor=#D6D6D6;strokeWidth=3;exitX=1;exitY=0.5;exitDx=0;exitDy=0;entryX=0;entryY=1;entryDx=0;entryDy=0;opacity=60;" parent="1" source="n9Uv7dvkTE0P81GzbXzv-2" target="n9Uv7dvkTE0P81GzbXzv-6" edge="1">
          <mxGeometry width="50" height="50" relative="1" as="geometry">
            <mxPoint x="550" y="380" as="sourcePoint" />
            <mxPoint x="600" y="330" as="targetPoint" />
          </mxGeometry>
        </mxCell>
        <mxCell id="n9Uv7dvkTE0P81GzbXzv-13" value="" style="endArrow=classic;html=1;rounded=0;strokeColor=#D6D6D6;strokeWidth=3;exitX=1;exitY=0;exitDx=0;exitDy=0;entryX=0.35;entryY=1;entryDx=0;entryDy=0;entryPerimeter=0;opacity=60;" parent="1" source="n9Uv7dvkTE0P81GzbXzv-6" target="n9Uv7dvkTE0P81GzbXzv-4" edge="1">
          <mxGeometry width="50" height="50" relative="1" as="geometry">
            <mxPoint x="550" y="380" as="sourcePoint" />
            <mxPoint x="600" y="330" as="targetPoint" />
          </mxGeometry>
        </mxCell>
        <mxCell id="n9Uv7dvkTE0P81GzbXzv-14" value="" style="endArrow=classic;html=1;rounded=0;strokeColor=#D6D6D6;strokeWidth=3;exitX=0;exitY=1;exitDx=0;exitDy=0;entryX=1;entryY=0.5;entryDx=0;entryDy=0;opacity=60;" parent="1" source="n9Uv7dvkTE0P81GzbXzv-5" target="n9Uv7dvkTE0P81GzbXzv-6" edge="1">
          <mxGeometry width="50" height="50" relative="1" as="geometry">
            <mxPoint x="550" y="380" as="sourcePoint" />
            <mxPoint x="600" y="330" as="targetPoint" />
          </mxGeometry>
        </mxCell>
        <mxCell id="n9Uv7dvkTE0P81GzbXzv-15" value="" style="endArrow=classic;html=1;rounded=0;strokeColor=#D6D6D6;strokeWidth=3;exitX=0.5;exitY=1;exitDx=0;exitDy=0;entryX=0.5;entryY=0;entryDx=0;entryDy=0;opacity=60;" parent="1" source="n9Uv7dvkTE0P81GzbXzv-2" target="n9Uv7dvkTE0P81GzbXzv-7" edge="1">
          <mxGeometry width="50" height="50" relative="1" as="geometry">
            <mxPoint x="550" y="380" as="sourcePoint" />
            <mxPoint x="600" y="330" as="targetPoint" />
          </mxGeometry>
        </mxCell>
        <mxCell id="n9Uv7dvkTE0P81GzbXzv-16" value="" style="endArrow=classic;html=1;rounded=0;strokeColor=#D6D6D6;strokeWidth=3;exitX=1;exitY=0;exitDx=0;exitDy=0;entryX=0.5;entryY=1;entryDx=0;entryDy=0;opacity=60;" parent="1" source="n9Uv7dvkTE0P81GzbXzv-7" target="n9Uv7dvkTE0P81GzbXzv-6" edge="1">
          <mxGeometry width="50" height="50" relative="1" as="geometry">
            <mxPoint x="550" y="380" as="sourcePoint" />
            <mxPoint x="600" y="330" as="targetPoint" />
          </mxGeometry>
        </mxCell>
        <mxCell id="n9Uv7dvkTE0P81GzbXzv-17" value="" style="endArrow=classic;html=1;rounded=0;strokeColor=#D6D6D6;strokeWidth=3;exitX=0;exitY=1;exitDx=0;exitDy=0;entryX=1;entryY=0;entryDx=0;entryDy=0;opacity=60;" parent="1" source="n9Uv7dvkTE0P81GzbXzv-8" target="n9Uv7dvkTE0P81GzbXzv-9" edge="1">
          <mxGeometry width="50" height="50" relative="1" as="geometry">
            <mxPoint x="710" y="250" as="sourcePoint" />
            <mxPoint x="760" y="200" as="targetPoint" />
          </mxGeometry>
        </mxCell>
        <mxCell id="n9Uv7dvkTE0P81GzbXzv-18" value="" style="endArrow=classic;html=1;rounded=0;strokeColor=#D6D6D6;strokeWidth=3;entryX=1;entryY=0.5;entryDx=0;entryDy=0;opacity=60;exitX=1.001;exitY=0.725;exitDx=0;exitDy=0;exitPerimeter=0;" parent="1" source="n9Uv7dvkTE0P81GzbXzv-20" target="n9Uv7dvkTE0P81GzbXzv-8" edge="1">
          <mxGeometry width="50" height="50" relative="1" as="geometry">
            <mxPoint x="1580" y="620" as="sourcePoint" />
            <mxPoint x="760" y="200" as="targetPoint" />
          </mxGeometry>
        </mxCell>
        <mxCell id="n9Uv7dvkTE0P81GzbXzv-19" value="" style="endArrow=none;html=1;rounded=0;strokeColor=#D6D6D6;strokeWidth=3;exitX=0;exitY=1;exitDx=0;exitDy=0;opacity=60;endFill=0;" parent="1" source="n9Uv7dvkTE0P81GzbXzv-9" edge="1">
          <mxGeometry width="50" height="50" relative="1" as="geometry">
            <mxPoint x="1141.7157287525379" y="710.2842712474626" as="sourcePoint" />
            <mxPoint x="1100" y="892" as="targetPoint" />
          </mxGeometry>
        </mxCell>
        <mxCell id="n9Uv7dvkTE0P81GzbXzv-21" style="edgeStyle=orthogonalEdgeStyle;rounded=0;orthogonalLoop=1;jettySize=auto;html=1;exitX=0.5;exitY=1;exitDx=0;exitDy=0;opacity=60;" parent="1" source="n9Uv7dvkTE0P81GzbXzv-20" target="n9Uv7dvkTE0P81GzbXzv-20" edge="1">
          <mxGeometry relative="1" as="geometry" />
        </mxCell>
        <mxCell id="n9Uv7dvkTE0P81GzbXzv-22" value="" style="endArrow=classic;html=1;rounded=0;exitX=1;exitY=0.5;exitDx=0;exitDy=0;entryX=0;entryY=0.5;entryDx=0;entryDy=0;strokeColor=#D6D6D6;strokeWidth=3;opacity=60;" parent="1" source="n9Uv7dvkTE0P81GzbXzv-4" target="n9Uv7dvkTE0P81GzbXzv-5" edge="1">
          <mxGeometry width="50" height="50" relative="1" as="geometry">
            <mxPoint x="80" y="20" as="sourcePoint" />
            <mxPoint x="280" y="10" as="targetPoint" />
          </mxGeometry>
        </mxCell>
      </root>
    </mxGraphModel>
  </diagram>
</mxfile>
